<svg xmlns="http://www.w3.org/2000/svg" viewBox="0 0 720 386" role="img" aria-label="Animación: las páginas 0 a 3 de un proceso se cargan en los marcos libres 5, 1, 7 y 3, y la tabla de páginas guarda la correspondencia">
<style>
text{font-family:"Segoe UI",Helvetica,Arial,sans-serif;font-size:14px;fill:#e6e6e6}
.m{font-family:Consolas,"DejaVu Sans Mono",Menlo,monospace}
.d{fill:#8b949e}.ok{fill:#4cc26a}.er{fill:#ef5350}.y{fill:#f4d03f}.o{fill:#f0a070}.t{fill:#6fd3e3}
.c{text-anchor:middle}.e{text-anchor:end}.b{font-weight:600}.s{font-size:12px}.l{font-size:18px}.xl{font-size:26px}
.cap{font-size:14px}
.f{opacity:0}.fin{opacity:1}
.f0{animation:s2_8 14s linear 0s infinite}
.f1{animation:s2_8 14s linear -11.2s infinite}
.f2{animation:s2_8 14s linear -8.4s infinite}
.f3{animation:s2_8 14s linear -5.6s infinite}
.f4{animation:s2_8l 14s linear -2.8s infinite}
@keyframes s2_8{0%{opacity:0}2.50%{opacity:1}20.00%{opacity:1}22.50%{opacity:0}100%{opacity:0}}
@keyframes s2_8l{0%{opacity:0}2.50%{opacity:1}17.50%{opacity:1}20.00%{opacity:0}100%{opacity:0}}
@media (prefers-reduced-motion:reduce){.f{animation:none}}
</style>
<defs>
<marker id="aw" viewBox="0 0 10 10" refX="9" refY="5" markerWidth="6" markerHeight="6" orient="auto-start-reverse"><path d="M0,0 L10,5 L0,10 z" fill="#cfd4da"/></marker>
<marker id="ag" viewBox="0 0 10 10" refX="9" refY="5" markerWidth="6" markerHeight="6" orient="auto-start-reverse"><path d="M0,0 L10,5 L0,10 z" fill="#4cc26a"/></marker>
<marker id="ar" viewBox="0 0 10 10" refX="9" refY="5" markerWidth="6" markerHeight="6" orient="auto-start-reverse"><path d="M0,0 L10,5 L0,10 z" fill="#ef5350"/></marker>
<marker id="ay" viewBox="0 0 10 10" refX="9" refY="5" markerWidth="6" markerHeight="6" orient="auto-start-reverse"><path d="M0,0 L10,5 L0,10 z" fill="#f4d03f"/></marker>
<marker id="ao" viewBox="0 0 10 10" refX="9" refY="5" markerWidth="6" markerHeight="6" orient="auto-start-reverse"><path d="M0,0 L10,5 L0,10 z" fill="#e8804a"/></marker>
<marker id="at" viewBox="0 0 10 10" refX="9" refY="5" markerWidth="6" markerHeight="6" orient="auto-start-reverse"><path d="M0,0 L10,5 L0,10 z" fill="#3fb5c9"/></marker>
<marker id="ap0" viewBox="0 0 10 10" refX="9" refY="5" markerWidth="6" markerHeight="6" orient="auto-start-reverse"><path d="M0,0 L10,5 L0,10 z" fill="#5aa9e6"/></marker>
<marker id="ap1" viewBox="0 0 10 10" refX="9" refY="5" markerWidth="6" markerHeight="6" orient="auto-start-reverse"><path d="M0,0 L10,5 L0,10 z" fill="#5cc97a"/></marker>
<marker id="ap2" viewBox="0 0 10 10" refX="9" refY="5" markerWidth="6" markerHeight="6" orient="auto-start-reverse"><path d="M0,0 L10,5 L0,10 z" fill="#e2c044"/></marker>
<marker id="ap3" viewBox="0 0 10 10" refX="9" refY="5" markerWidth="6" markerHeight="6" orient="auto-start-reverse"><path d="M0,0 L10,5 L0,10 z" fill="#ef6b6b"/></marker>
<pattern id="hatch" width="8" height="8" patternUnits="userSpaceOnUse" patternTransform="rotate(45)"><rect width="8" height="8" fill="#181b20"/><line x1="0" y1="0" x2="0" y2="8" stroke="#4a5059" stroke-width="3"/></pattern>
</defs>
<rect width="720" height="386" rx="10" fill="#121417"/>
<text x="120" y="44" class="c s d">Proceso (páginas)</text>
<text x="360" y="44" class="c s d">Tabla de páginas</text>
<text x="610" y="24" class="c s d">Memoria física (marcos)</text>
<line x1="20" y1="346" x2="700" y2="346" stroke="#2a2e35"/>
<rect x="50" y="60" width="140" height="42" rx="4" fill="#1f3b57" stroke="#5aa9e6" stroke-width="1.5"/>
<text x="120" y="86" class="c">página 0</text>
<rect x="290" y="60" width="140" height="42" rx="4" fill="#1c1f24" stroke="#3a4048" stroke-width="1.5"/>
<line x1="360" y1="60" x2="360" y2="102" stroke="#3a4048"/>
<text x="325" y="86" class="c m d">0</text>
<rect x="50" y="110" width="140" height="42" rx="4" fill="#1f4a2c" stroke="#5cc97a" stroke-width="1.5"/>
<text x="120" y="136" class="c">página 1</text>
<rect x="290" y="110" width="140" height="42" rx="4" fill="#1c1f24" stroke="#3a4048" stroke-width="1.5"/>
<line x1="360" y1="110" x2="360" y2="152" stroke="#3a4048"/>
<text x="325" y="136" class="c m d">1</text>
<rect x="50" y="160" width="140" height="42" rx="4" fill="#4d4216" stroke="#e2c044" stroke-width="1.5"/>
<text x="120" y="186" class="c">página 2</text>
<rect x="290" y="160" width="140" height="42" rx="4" fill="#1c1f24" stroke="#3a4048" stroke-width="1.5"/>
<line x1="360" y1="160" x2="360" y2="202" stroke="#3a4048"/>
<text x="325" y="186" class="c m d">2</text>
<rect x="50" y="210" width="140" height="42" rx="4" fill="#552222" stroke="#ef6b6b" stroke-width="1.5"/>
<text x="120" y="236" class="c">página 3</text>
<rect x="290" y="210" width="140" height="42" rx="4" fill="#1c1f24" stroke="#3a4048" stroke-width="1.5"/>
<line x1="360" y1="210" x2="360" y2="252" stroke="#3a4048"/>
<text x="325" y="236" class="c m d">3</text>
<text x="690" y="58" class="m s d">0</text>
<rect x="540" y="36" width="140" height="34" rx="0" fill="#2a2e35" stroke="#4a5059" stroke-width="1.5"/>
<text x="610" y="58" class="c s d">SO</text>
<text x="690" y="96" class="m s d">1</text>
<rect x="540" y="74" width="140" height="34" rx="0" fill="#181b20" stroke="#3a4048" stroke-width="1.5" stroke-dasharray="5 4"/>
<text x="610" y="96" class="c s d">libre</text>
<text x="690" y="134" class="m s d">2</text>
<rect x="540" y="112" width="140" height="34" rx="0" fill="#2a2e35" stroke="#4a5059" stroke-width="1.5"/>
<text x="610" y="134" class="c s d">otro proceso</text>
<text x="690" y="172" class="m s d">3</text>
<rect x="540" y="150" width="140" height="34" rx="0" fill="#181b20" stroke="#3a4048" stroke-width="1.5" stroke-dasharray="5 4"/>
<text x="610" y="172" class="c s d">libre</text>
<text x="690" y="210" class="m s d">4</text>
<rect x="540" y="188" width="140" height="34" rx="0" fill="#2a2e35" stroke="#4a5059" stroke-width="1.5"/>
<text x="610" y="210" class="c s d">otro proceso</text>
<text x="690" y="248" class="m s d">5</text>
<rect x="540" y="226" width="140" height="34" rx="0" fill="#181b20" stroke="#3a4048" stroke-width="1.5" stroke-dasharray="5 4"/>
<text x="610" y="248" class="c s d">libre</text>
<text x="690" y="286" class="m s d">6</text>
<rect x="540" y="264" width="140" height="34" rx="0" fill="#2a2e35" stroke="#4a5059" stroke-width="1.5"/>
<text x="610" y="286" class="c s d">otro proceso</text>
<text x="690" y="324" class="m s d">7</text>
<rect x="540" y="302" width="140" height="34" rx="0" fill="#181b20" stroke="#3a4048" stroke-width="1.5" stroke-dasharray="5 4"/>
<text x="610" y="324" class="c s d">libre</text>
<g class="f f0">
<text x="24" y="370" class="cap"><tspan class="d">1/5</tspan><tspan dx="10">El proceso se divide en páginas y la memoria en marcos del mismo tamaño</tspan></text>
</g>
<g class="f f1">
<rect x="540" y="226" width="140" height="34" rx="0" fill="#1f3b57" stroke="#5aa9e6" stroke-width="1.5"/>
<text x="610" y="248" class="c s">página 0</text>
<text x="395" y="86" class="c m b">5</text>
<line x1="190" y1="81" x2="287" y2="81" stroke="#5aa9e6" stroke-width="2.5" marker-end="url(#ap0)"/>
<path d="M430,81 C483.5,81 483.5,243 537,243" fill="none" stroke="#5aa9e6" stroke-width="2.5" marker-end="url(#ap0)"/>
<text x="24" y="370" class="cap"><tspan class="d">2/5</tspan><tspan dx="10">La página 0 se carga en un marco libre cualquiera: el 5</tspan></text>
</g>
<g class="f f2">
<rect x="540" y="226" width="140" height="34" rx="0" fill="#1f3b57" stroke="#5aa9e6" stroke-width="1.5"/>
<text x="610" y="248" class="c s">página 0</text>
<text x="395" y="86" class="c m b">5</text>
<rect x="540" y="74" width="140" height="34" rx="0" fill="#1f4a2c" stroke="#5cc97a" stroke-width="1.5"/>
<text x="610" y="96" class="c s">página 1</text>
<text x="395" y="136" class="c m b">1</text>
<line x1="190" y1="131" x2="287" y2="131" stroke="#5cc97a" stroke-width="2.5" marker-end="url(#ap1)"/>
<path d="M430,131 C483.5,131 483.5,91 537,91" fill="none" stroke="#5cc97a" stroke-width="2.5" marker-end="url(#ap1)"/>
<text x="24" y="370" class="cap"><tspan class="d">3/5</tspan><tspan dx="10">La página 1, en el marco 1</tspan></text>
</g>
<g class="f f3">
<rect x="540" y="226" width="140" height="34" rx="0" fill="#1f3b57" stroke="#5aa9e6" stroke-width="1.5"/>
<text x="610" y="248" class="c s">página 0</text>
<text x="395" y="86" class="c m b">5</text>
<rect x="540" y="74" width="140" height="34" rx="0" fill="#1f4a2c" stroke="#5cc97a" stroke-width="1.5"/>
<text x="610" y="96" class="c s">página 1</text>
<text x="395" y="136" class="c m b">1</text>
<rect x="540" y="302" width="140" height="34" rx="0" fill="#4d4216" stroke="#e2c044" stroke-width="1.5"/>
<text x="610" y="324" class="c s">página 2</text>
<text x="395" y="186" class="c m b">7</text>
<line x1="190" y1="181" x2="287" y2="181" stroke="#e2c044" stroke-width="2.5" marker-end="url(#ap2)"/>
<path d="M430,181 C483.5,181 483.5,319 537,319" fill="none" stroke="#e2c044" stroke-width="2.5" marker-end="url(#ap2)"/>
<text x="24" y="370" class="cap"><tspan class="d">4/5</tspan><tspan dx="10">La página 2, en el marco 7</tspan></text>
</g>
<g class="f f4 fin">
<rect x="540" y="226" width="140" height="34" rx="0" fill="#1f3b57" stroke="#5aa9e6" stroke-width="1.5"/>
<text x="610" y="248" class="c s">página 0</text>
<text x="395" y="86" class="c m b">5</text>
<line x1="190" y1="81" x2="287" y2="81" stroke="#5aa9e6" stroke-width="1.5" marker-end="url(#ap0)"/>
<path d="M430,81 C483.5,81 483.5,243 537,243" fill="none" stroke="#5aa9e6" stroke-width="1.5" marker-end="url(#ap0)"/>
<rect x="540" y="74" width="140" height="34" rx="0" fill="#1f4a2c" stroke="#5cc97a" stroke-width="1.5"/>
<text x="610" y="96" class="c s">página 1</text>
<text x="395" y="136" class="c m b">1</text>
<line x1="190" y1="131" x2="287" y2="131" stroke="#5cc97a" stroke-width="1.5" marker-end="url(#ap1)"/>
<path d="M430,131 C483.5,131 483.5,91 537,91" fill="none" stroke="#5cc97a" stroke-width="1.5" marker-end="url(#ap1)"/>
<rect x="540" y="302" width="140" height="34" rx="0" fill="#4d4216" stroke="#e2c044" stroke-width="1.5"/>
<text x="610" y="324" class="c s">página 2</text>
<text x="395" y="186" class="c m b">7</text>
<line x1="190" y1="181" x2="287" y2="181" stroke="#e2c044" stroke-width="1.5" marker-end="url(#ap2)"/>
<path d="M430,181 C483.5,181 483.5,319 537,319" fill="none" stroke="#e2c044" stroke-width="1.5" marker-end="url(#ap2)"/>
<rect x="540" y="150" width="140" height="34" rx="0" fill="#552222" stroke="#ef6b6b" stroke-width="1.5"/>
<text x="610" y="172" class="c s">página 3</text>
<text x="395" y="236" class="c m b">3</text>
<line x1="190" y1="231" x2="287" y2="231" stroke="#ef6b6b" stroke-width="2.5" marker-end="url(#ap3)"/>
<path d="M430,231 C483.5,231 483.5,167 537,167" fill="none" stroke="#ef6b6b" stroke-width="2.5" marker-end="url(#ap3)"/>
<text x="24" y="370" class="cap"><tspan class="d">5/5</tspan><tspan dx="10">La página 3, en el marco 3: el proceso queda repartido en marcos no contiguos</tspan></text>
</g>
</svg>
