<?xml version="1.0" encoding="UTF-8"?>
<svg xmlns="http://www.w3.org/2000/svg" viewBox="0 0 480 300" font-family="sans-serif" font-size="12" role="img" aria-label="Movimiento de la cabeza con SCAN en forma de ascensor: 10, 22, 35, 61, 88, extremo, invierte sentido, 74, 40">
  <rect width="480" height="300" fill="#ffffff"/>
  <line x1="55" y1="20" x2="55" y2="250" stroke="#333"/>
  <line x1="55" y1="250" x2="460" y2="250" stroke="#333"/>
  <text x="15" y="25">pista</text>
  <text x="20" y="250">0</text>
  <polyline fill="none" stroke="#2b4a8b" stroke-width="1.6"
    points="55,229 112,204 169,177 226,123 284,66 341,41 398,95 455,166"/>
  <g fill="#c0392b">
    <circle cx="55" cy="229" r="3"/><circle cx="112" cy="204" r="3"/><circle cx="169" cy="177" r="3"/>
    <circle cx="226" cy="123" r="3"/><circle cx="284" cy="66" r="3"/>
    <circle cx="398" cy="95" r="3"/><circle cx="455" cy="166" r="3"/>
  </g>
  <circle cx="341" cy="41" r="4" fill="none" stroke="#c0392b" stroke-width="1.5"/>
  <g fill="#333">
    <text x="45" y="225">10</text><text x="102" y="200">22</text><text x="159" y="173">35</text>
    <text x="216" y="119">61</text><text x="274" y="62">88</text>
    <text x="316" y="34">extremo</text>
    <text x="388" y="91">74</text><text x="445" y="180">40</text>
  </g>
  <text x="170" y="270" font-size="11">orden de atención →</text>
  <line x1="284" y1="55" x2="341" y2="45" stroke="#999" stroke-dasharray="2,2"/>
  <text x="345" y="20" font-size="11" fill="#666">invierte el sentido</text>
</svg>
