<?xml version="1.0" encoding="UTF-8"?>
<svg xmlns="http://www.w3.org/2000/svg" viewBox="0 0 640 360" font-family="sans-serif" font-size="13" role="img" aria-label="Arquitectura de Von Neumann: CPU conectada por bus de direcciones y de datos a la memoria principal y a los dispositivos de E/S">
  <rect width="640" height="360" fill="#ffffff"/>
  <rect x="190" y="20" width="260" height="100" fill="#9dc3e6" stroke="#333"/>
  <text x="320" y="36" text-anchor="middle" font-weight="bold" font-size="12">Unidad Central de Procesamiento (CPU)</text>
  <rect x="205" y="55" width="110" height="50" fill="#cfe2f3" stroke="#333"/>
  <text x="260" y="76" text-anchor="middle" font-size="11">Unidad Aritmético-</text>
  <text x="260" y="90" text-anchor="middle" font-size="11">Lógica (ALU)</text>
  <rect x="330" y="55" width="105" height="50" fill="#cfe2f3" stroke="#333"/>
  <text x="382" y="76" text-anchor="middle" font-size="11">Unidad de</text>
  <text x="382" y="90" text-anchor="middle" font-size="11">Control (CU)</text>
  <line x1="320" y1="120" x2="320" y2="220" stroke="#333"/>
  <line x1="60" y1="180" x2="580" y2="180" stroke="#c9622f" stroke-width="3"/>
  <text x="65" y="173" font-size="12">bus de direcciones</text>
  <line x1="60" y1="220" x2="580" y2="220" stroke="#c9622f" stroke-width="3"/>
  <text x="65" y="238" font-size="12">bus de datos</text>
  <line x1="150" y1="180" x2="150" y2="270" stroke="#333"/>
  <line x1="190" y1="220" x2="190" y2="270" stroke="#333"/>
  <line x1="450" y1="180" x2="450" y2="270" stroke="#333"/>
  <line x1="490" y1="220" x2="490" y2="270" stroke="#333"/>
  <rect x="80" y="270" width="200" height="60" fill="#d9ead3" stroke="#333"/>
  <text x="180" y="296" text-anchor="middle" font-size="12">Memoria principal</text>
  <text x="180" y="312" text-anchor="middle" font-size="11">(memoria de ejecución)</text>
  <rect x="380" y="270" width="200" height="60" fill="#d9ead3" stroke="#333"/>
  <text x="480" y="305" text-anchor="middle" font-size="12">Dispositivos de E/S</text>
</svg>
