<?xml version="1.0" encoding="UTF-8"?>
<svg xmlns="http://www.w3.org/2000/svg" viewBox="0 0 620 350" font-family="sans-serif" font-size="12" role="img" aria-label="Pirámide de la jerarquía de memoria, de registros arriba a unidades magnéticas y ópticas abajo">
  <rect width="620" height="350" fill="#ffffff"/>
  <polygon points="280,20 330,70 230,70" fill="#d9ead3" stroke="#333"/>
  <text x="280" y="60" text-anchor="middle" font-size="11">Registros</text>
  <polygon points="230,70 330,70 370,120 190,120" fill="#cfe2f3" stroke="#333"/>
  <text x="280" y="102" text-anchor="middle" font-size="11">Caché</text>
  <polygon points="190,120 370,120 410,180 150,180" fill="#fce5a8" stroke="#333"/>
  <text x="280" y="155" text-anchor="middle" font-size="12">Memoria Principal</text>
  <polygon points="150,180 410,180 450,230 110,230" fill="#f4cccc" stroke="#333"/>
  <text x="280" y="210" text-anchor="middle" font-size="12">Caché del disco</text>
  <polygon points="110,230 450,230 490,285 70,285" fill="#e2c9f7" stroke="#333"/>
  <text x="280" y="262" text-anchor="middle" font-size="12">Discos magnéticos</text>
  <polygon points="70,285 490,285 530,330 30,330" fill="#e2e2e2" stroke="#333"/>
  <text x="280" y="312" text-anchor="middle" font-size="12">Unidades magnéticas y ópticas</text>
  <line x1="560" y1="30" x2="560" y2="320" stroke="#333"/>
  <path d="M 554 38 L 560 30 L 566 38" fill="#333"/>
  <path d="M 554 312 L 560 320 L 566 312" fill="#333"/>
  <text x="600" y="35" text-anchor="end" font-size="11">rápida / pequeña</text>
  <text x="600" y="322" text-anchor="end" font-size="11">lenta / grande</text>
</svg>
