<?xml version="1.0" encoding="UTF-8"?>
<svg xmlns="http://www.w3.org/2000/svg" viewBox="0 0 760 400" font-family="sans-serif" font-size="14" role="img" aria-label="La CPU guarda sus registros en el descriptor del hilo saliente y carga los del hilo entrante">
  <rect width="760" height="400" fill="#ffffff"/>
  <rect x="40" y="90" width="240" height="220" fill="#dbeafe" stroke="#2563a6" stroke-width="1.5"/>
  <text x="160" y="115" text-anchor="middle" font-size="16" font-weight="bold">CPU</text>
  <g fill="#eff6ff" stroke="#2563a6">
    <rect x="110" y="135" width="100" height="30"/>
    <rect x="110" y="165" width="100" height="30"/>
    <rect x="110" y="195" width="100" height="30"/>
    <rect x="110" y="225" width="100" height="30"/>
  </g>
  <text x="160" y="285" text-anchor="middle" font-size="12">registros (PC, SP, …)</text>
  <rect x="470" y="40" width="250" height="140" fill="#f1f5f9" stroke="#475569" stroke-width="1.5"/>
  <text x="595" y="62" text-anchor="middle" font-weight="bold">Descriptor del hilo viejo</text>
  <g fill="#ffffff" stroke="#475569">
    <rect x="520" y="75" width="150" height="22"/><rect x="520" y="97" width="150" height="22"/>
    <rect x="520" y="119" width="150" height="22"/><rect x="520" y="141" width="150" height="22"/>
  </g>
  <rect x="470" y="220" width="250" height="140" fill="#f1f5f9" stroke="#475569" stroke-width="1.5"/>
  <text x="595" y="242" text-anchor="middle" font-weight="bold">Descriptor del hilo nuevo</text>
  <g fill="#ffffff" stroke="#475569">
    <rect x="520" y="255" width="150" height="22"/><rect x="520" y="277" width="150" height="22"/>
    <rect x="520" y="299" width="150" height="22"/><rect x="520" y="321" width="150" height="22"/>
  </g>
  <path d="M 215 150 C 350 90, 380 90, 512 105" fill="none" stroke="#2563a6" stroke-width="3"/>
  <path d="M 512 105 l -12 -3 l 4 9 z" fill="#2563a6"/>
  <text x="360" y="80" text-anchor="middle" fill="#2563a6" font-size="13">guardar contexto</text>
  <path d="M 512 300 C 380 320, 350 320, 215 245" fill="none" stroke="#1d7a3c" stroke-width="3"/>
  <path d="M 215 245 l 12 2 l -5 -9 z" fill="#1d7a3c"/>
  <text x="360" y="345" text-anchor="middle" fill="#1d7a3c" font-size="13">restaurar contexto</text>
  <text x="160" y="345" text-anchor="middle" font-size="15" font-weight="bold">Cambio de contexto</text>
</svg>
