<?xml version="1.0" encoding="UTF-8"?>
<svg xmlns="http://www.w3.org/2000/svg" viewBox="0 0 680 320" font-family="sans-serif" font-size="12" role="img" aria-label="Las aplicaciones y el gestor de ventanas hablan con el servidor X mediante el protocolo X; el servidor X se apoya en el núcleo para acceder al hardware gráfico y de entrada">
  <rect width="680" height="320" fill="#ffffff"/>
  <rect x="30" y="20" width="180" height="46" rx="6" fill="#eef2f7" stroke="#666"/><text x="120" y="48" text-anchor="middle">aplicación cliente 1</text>
  <rect x="250" y="20" width="180" height="46" rx="6" fill="#eef2f7" stroke="#666"/><text x="340" y="48" text-anchor="middle">aplicación cliente 2</text>
  <rect x="470" y="20" width="180" height="46" rx="6" fill="#eef2f7" stroke="#666"/><text x="560" y="48" text-anchor="middle">gestor de ventanas</text>
  <rect x="180" y="110" width="320" height="50" fill="#6ba3d6" stroke="#2b6f99"/><text x="340" y="132" text-anchor="middle" fill="#fff">servidor X</text><text x="340" y="148" text-anchor="middle" fill="#fff" font-size="10">dibuja, reparte eventos</text>
  <rect x="180" y="200" width="320" height="46" fill="#3f7fb5" stroke="#2b6f99"/><text x="340" y="222" text-anchor="middle" fill="#fff">núcleo</text><text x="340" y="238" text-anchor="middle" fill="#fff" font-size="10">framebuffer / DRM-KMS, drivers de entrada</text>
  <rect x="180" y="280" width="320" height="30" fill="#1f3f66" stroke="#132840"/><text x="340" y="300" text-anchor="middle" fill="#fff" font-size="11">pantalla · teclado · ratón · GPU</text>
  <line x1="120" y1="66" x2="260" y2="110" stroke="#333"/><path d="M260 110 l-10 -3 l3 -8 z" fill="#333"/>
  <line x1="340" y1="66" x2="340" y2="110" stroke="#333"/><path d="M340 110 l-4 -9 l8 0 z" fill="#333"/>
  <line x1="560" y1="66" x2="420" y2="110" stroke="#333"/><path d="M420 110 l10 -3 l-2 8 z" fill="#333"/>
  <text x="440" y="90" font-size="10" fill="#555">protocolo X</text>
  <line x1="300" y1="160" x2="300" y2="200" stroke="#333"/><path d="M300 200 l-4 -9 l8 0 z" fill="#333"/>
  <line x1="380" y1="200" x2="380" y2="160" stroke="#999" stroke-dasharray="3 3"/><path d="M380 160 l-4 8 l8 0 z" fill="#999"/>
  <line x1="300" y1="246" x2="300" y2="280" stroke="#333"/><path d="M300 280 l-4 -9 l8 0 z" fill="#333"/>
  <line x1="380" y1="280" x2="380" y2="246" stroke="#999" stroke-dasharray="3 3"/><path d="M380 246 l-4 8 l8 0 z" fill="#999"/>
  <text x="470" y="215" font-size="10" fill="#777">línea continua: comandos</text>
  <text x="470" y="230" font-size="10" fill="#777">línea discontinua: eventos</text>
</svg>
